# The Great Editor v0.0.1
mtllib floor_1.mtl
o floor_1
v 0.10500329274612413 -3.959888303935405 0
v 0.10500329274612413 -3.959888303935405 -0.1
v 6.158249624548977 -3.9144814746397842 0
v 6.158249624548977 -3.9144814746397842 -0.1
v 6.185080932769116 -0.7799138918219489 0
v 6.185080932769116 -0.7799138918219489 -0.1
v 7.416070394707339 -0.8811504816833228 0
v 7.416070394707339 -0.8811504816833228 -0.1
v 9.535846941437693 -0.9018931468842769 0
v 9.535846941437693 -0.9018931468842769 -0.1
v 9.515155874906394 -17.708302234604705 0
v 9.515155874906394 -17.708302234604705 -0.1
v 9.791311954895216 -17.72904489980566 0
v 9.791311954895216 -17.72904489980566 -0.1
v 9.80514039836252 -22.341449980187004 0
v 9.80514039836252 -22.341449980187004 -0.1
v 9.542761163171345 -22.341449980187004 0
v 9.542761163171345 -22.341449980187004 -0.1
v 9.52201849797039 -22.97673280096847 0
v 9.52201849797039 -22.97673280096847 -0.1
v 0.09638631491388691 -22.98978726439096 0
v 0.09638631491388691 -22.98978726439096 -0.1
v 0.08214508208935116 -11.776209579149715 0
v 0.08214508208935116 -11.776209579149715 -0.1
v 1.1668523155581576 -11.790760403992174 0
v 1.1668523155581576 -11.790760403992174 -0.1
v 1.1949219918499963 -10.76048976700846 0
v 1.1949219918499963 -10.76048976700846 -0.1
v 0.09050406657331779 -10.76048976700846 0
v 0.09050406657331779 -10.76048976700846 -0.1
v 9.51641721962886 -16.68376947916091 0
v 9.51641721962886 -16.68376947916091 -0.1
vt 0.10500329274612413 -3.959888303935405 0
vt 6.158249624548977 -3.9144814746397842 0
vt 6.185080932769116 -0.7799138918219489 0
vt 7.416070394707339 -0.8811504816833228 0
vt 9.535846941437693 -0.9018931468842769 0
vt 9.515155874906394 -17.708302234604705 0
vt 9.791311954895216 -17.72904489980566 0
vt 9.80514039836252 -22.341449980187004 0
vt 9.542761163171345 -22.341449980187004 0
vt 9.52201849797039 -22.97673280096847 0
vt 0.09638631491388691 -22.98978726439096 0
vt 0.08214508208935116 -11.776209579149715 0
vt 1.1668523155581576 -11.790760403992174 0
vt 1.1949219918499963 -10.76048976700846 0
vt 0.09050406657331779 -10.76048976700846 0
vt 9.51641721962886 -16.68376947916091 0
vn 0 0 1
vn 0 0 -1
usemtl floor_1
s off
f 1/1/1 29/15/1 27/14/1
f 28/14/2 30/15/2 2/1/2
f 1/1/1 27/14/1 3/2/1
f 4/2/2 28/14/2 2/1/2
f 5/3/1 3/2/1 7/4/1
f 8/4/2 4/2/2 6/3/2
f 9/5/1 7/4/1 3/2/1
f 4/2/2 8/4/2 10/5/2
f 3/2/1 31/16/1 9/5/1
f 10/5/2 32/16/2 4/2/2
f 19/10/1 17/9/1 21/11/1
f 22/11/2 18/9/2 20/10/2
f 21/11/1 17/9/1 11/6/1
f 12/6/2 18/9/2 22/11/2
f 21/11/1 11/6/1 25/13/1
f 26/13/2 12/6/2 22/11/2
f 21/11/1 25/13/1 23/12/1
f 24/12/2 26/13/2 22/11/2
f 27/14/1 25/13/1 11/6/1
f 12/6/2 26/13/2 28/14/2
f 27/14/1 11/6/1 3/2/1
f 4/2/2 12/6/2 28/14/2
f 3/2/1 11/6/1 31/16/1
f 32/16/2 12/6/2 4/2/2
f 13/7/1 11/6/1 17/9/1
f 18/9/2 12/6/2 14/7/2
f 13/7/1 17/9/1 15/8/1
f 16/8/2 18/9/2 14/7/2
